<?xml version="1.0" encoding="utf-8"?>
<!-- Generator: Adobe Illustrator 22.0.1, SVG Export Plug-In . SVG Version: 6.00 Build 0)  -->
<svg version="1.1" id="Layer_1" xmlns="http://www.w3.org/2000/svg" xmlns:xlink="http://www.w3.org/1999/xlink" x="0px" y="0px"
	 viewBox="0 0 190 190" style="enable-background:new 0 0 190 190;" xml:space="preserve">
<g>
	<path style="fill:#006FB6;" d="M103.1,90.5H89.6V78.4h13.4V90.5L103.1,90.5z M103.1,49H89.6v12.3h13.4V49z M119,78.4h-13.4v12.1
		H119L119,78.4L119,78.4z M87.2,63.8H73.8V76h13.4V63.8z M103.1,63.8H89.6V76h13.4V63.8z M159.3,84.1c-2.9-2-9.7-2.7-14.9-1.7
		c-0.7-4.9-3.4-9.1-8.4-12.9l-2.8-1.9l-1.9,2.8c-3.7,5.6-4.8,15-0.8,21.1c-1.8,1-5.2,2.3-9.8,2.2H32.5c-1.8,10.3,1.2,23.7,8.9,32.9
		C48.9,135.5,60.2,140,75,140c32,0,55.7-14.7,66.7-41.5c4.3,0.1,13.7,0,18.6-9.2c0.3-0.5,1.3-2.7,1.7-3.5L159.3,84.1L159.3,84.1z
		 M55.5,78.4H42.1v12.1h13.4L55.5,78.4L55.5,78.4z M71.3,78.4H57.9v12.1h13.4V78.4z M87.2,78.4H73.8v12.1h13.4V78.4z M71.3,63.8
		H57.9V76h13.4V63.8z"/>
</g>
</svg>
