<?xml version="1.0" encoding="utf-8"?>
<!-- Generator: Adobe Illustrator 22.0.1, SVG Export Plug-In . SVG Version: 6.00 Build 0)  -->
<svg version="1.1" id="Layer_1" xmlns="http://www.w3.org/2000/svg" xmlns:xlink="http://www.w3.org/1999/xlink" x="0px" y="0px"
	 viewBox="0 0 190 190" style="enable-background:new 0 0 190 190;" xml:space="preserve">
<g>
	<path style="fill:#413932;" d="M42.5,86.2c0,6.5,4.1,15.3,10.6,17.5v0.3c-4.8,2.1-6.1,12.9,0.3,16.8v0.3c-7,2.3-11.6,6.7-11.6,14.4
		c0,13.2,12.5,16.8,23.4,16.8c13.3,0,23.2-4.8,23.2-19.4c0-18-25.8-11.4-25.8-21.2c0-3.4,1.8-4.8,5-5.4c10.6-2,17.2-10.2,17.2-21
		c0-1.9-0.4-3.6-1-5.4c1.7-0.4,3.4-0.8,5-1.4V65.5c-4.4,1.7-9.1,3-13.9,3C61.2,60.6,42.5,68.9,42.5,86.2L42.5,86.2z M64.9,128.1
		c4.3,0,10.5,0.8,10.5,6.4c0,5.6-5,6.7-9.6,6.7c-4.4,0-11.1-0.7-11.1-6.4C54.8,129.1,60.4,128.1,64.9,128.1L64.9,128.1z M64.1,95
		c-5.6,0-8-3.3-8-8.6c0-12.6,15.6-12.5,15.6-0.1C71.7,91.4,69.6,95,64.1,95z M148.1,107.6v12.5c-3.4,1.9-7.8,2.5-11.6,2.5
		c-13.7,0-15.3-10.8-15.3-21.9V78.4h0.1v-0.3c-1.8,0-1.9-0.4-6.1,0.3V66.2h6.1c0-5.7,0.1-7.9-0.4-10.5h14.5c-0.5,3.5-0.4,7-0.4,10.5
		h13v12.1c0,0-4.9-0.3-13-0.3v23.3c0,3.8,0.8,8.4,5.6,8.4C143.1,109.8,146,109.1,148.1,107.6z M110.8,47.1c0,4.8-3.7,9.2-8.6,9.2
		c-5.1,0-8.8-4.4-8.8-9.2c0-4.9,3.7-9.4,8.8-9.4C107.2,37.8,110.8,42.4,110.8,47.1z M109.2,66.2c-0.5,3.7-0.4,51,0,55.6H95
		c0.4-4.6,0.5-51.9,0-55.6H109.2z"/>
</g>
</svg>
