<?xml version="1.0" encoding="utf-8"?>
<!-- Generator: Adobe Illustrator 22.0.1, SVG Export Plug-In . SVG Version: 6.00 Build 0)  -->
<svg version="1.1" id="Layer_1" xmlns="http://www.w3.org/2000/svg" xmlns:xlink="http://www.w3.org/1999/xlink" x="0px" y="0px"
	 viewBox="0 0 190 190" style="enable-background:new 0 0 190 190;" xml:space="preserve">
<g>
	<path style="fill:#CF4647;" d="M118.3,134l-4,7l-1.3,22.9c0,2.5-8.1,4.6-18,4.6s-18-2.1-18-4.6l-1.7-22.6l-4.2-7.2
		C82.9,138.9,107.1,138.8,118.3,134z M62.5,61.8l3.9,35.8c1.7-5.7,5.9-13.4,11.4-15.7c1.8-0.8,3.6-0.8,5.3,0.3
		c1.5,0.9,2.7,2.7,2.9,3.4c0.3,1.9-0.6,2.6-1.3,2.6c-0.9,0-1.5-1.3-1.9-2.1c-1.2-2.1-2.9-2.2-4.8-0.8c-2,1.4-3.7,3.8-4.9,5.9
		c-1.5,2.5-2.7,5.3-3.4,8c-0.4,1.6-0.8,4.2-0.2,5.7c0.3,0.6,0.7,1,1.4,1c1.4,0,3.5-1.9,4.5-2.9c1.3-1.3,2.9-3.3,3.6-4.6l1.5-4.4
		c0.7-1.9,2.8-1.6,2.8,0c0,2.9-1.1,3.9-2.9,9.9c-1.7,5.6-2.2,7.4-2.2,7.4c-0.2,0.8-1,2.1-1.8,2.1c-0.3,0-0.6-0.1-0.7-0.3
		c-0.3-0.4-0.3-1.5-0.2-1.8c0.1-0.9,1.8-6.3,2.1-7.2c-0.6,0.6-1.2,1.3-1.8,1.9c-1.5,1.5-4,3.4-6.1,3.4c-1,0-1.6-0.3-2.2-0.7
		l2.2,22.7c0.6,1.4,11.2,4.9,25.1,4.9c14,0,24.6-3.5,25.1-4.9l3.1-27c-1.6,1.5-3.5,3.3-5.6,4.2c-1.5,0.7-5,1.1-5-1.6
		c0-1.5,2.6-4.2,4.1-6.1c0.4-0.5,1.3-1.7,1.3-2.3c0-0.8-1.7-0.6-3.3,0.7c-0.9,0.8-1.8,1.8-2.5,2.8c-1.2,1.7-1.9,3.2-2.4,4.4
		c-1.8,4-1.2,2.5-2.6,6.3c-1.4,3.8-1.2,3.4-1.5,4c-0.3,0.5-0.6,1-1.1,1.3c-0.5,0.3-1.3,0.3-1.7-0.1c-0.3-0.2-0.4-0.5-0.4-1.1
		c0-0.3,0-0.5,0.1-0.8c0.4-1.7,2.2-5.2,4.3-9.8c0.5-1.1,0.3-0.7,0.2-0.7c-1.8,1.7-3.1,2.5-4.1,3c-1.7,0.7-3.7,0.7-4.1-1.2
		c0-0.1,0-0.2-0.1-0.3c-3.4,2.6-6.9,3.3-5.7-2.3c-1.3,2.3-3.6,4.2-6.4,4.2c-1.2,0-2-0.4-2.5-1.5c-0.7-1.6,0.4-4.2,1.3-6.8
		c0.5-1.3,1.1-2.8,2-4.6c0.5-1,1.2-1.5,2.2-1.3c0.2,0.1,0.3,0.1,0.5,0.2c0.7,0.5,0.5,1.3,0.1,2.1c-1.1,2.1-2,3.7-2.7,5.9
		c-0.3,0.9-0.6,2.6,0.4,2.6c0.7,0,1.3-0.2,2-0.7c1.3-1,2.4-2.4,3.2-3.8c0.6-1,1.3-2.4,1.6-3.5c0.1-0.5,0.3-0.9,0.5-1.4
		c0.3-0.7,0.7-1.5,1.5-1.5c0.4,0,0.7,0.1,0.9,0.4c0.5,0.6,0.4,1.3,0.1,2c-0.6,1.6-1.3,3-2,4.8c-0.4,1-0.8,2.3-0.8,3.3
		c0,1,1.1,0.7,1.9,0.3c0.7-0.3,1.4-0.8,1.9-1.3c0.3-1.4,0.3-1.1,7.5-19.4c0.4-0.9,1.1-1.3,1.7-1.3c0.3,0,0.6,0.1,0.9,0.3
		c0.5,0.4,0.5,1.2,0.3,1.8c-0.2,0.5-0.2,0.4-1.3,3c-1.5,3.4-2.5,5.9-3.8,9.1c-0.5,1.3-2.2,5.4-2.5,6.4c-0.2,0.6-0.4,1.7,0.3,1.7
		c1.5,0,5.5-3.7,6.6-4.8c0.1-0.1,0.1-0.1,0.3-0.2c0.2-0.5,0.3-1.1,0.5-1.6c0.4-1.1,0.8-2.3,1.5-3.2c0.2-0.3,0.5-0.5,0.8-0.5
		c0.8,0,1.2,0.3,1.2,1.1c0,0.3-0.2,1.5-0.3,1.8c0.4-0.4,0.8-0.9,1.3-1.3c4.3-4,7.3-1.9,7.3,0.1c0,2.1-2.5,5-3.9,6.7
		c-0.5,0.5-1.4,1.5-1.4,1.8c0,0.4,0.3,0.5,0.6,0.5c0.6,0,1.8-1,2.3-1.3c1.4-1.1,3.4-2.8,4.7-4l4.2-39
		C118.9,66.6,71.2,66.6,62.5,61.8L62.5,61.8z M127.9,59.4c0,6-65.9,6-65.9,0c0-2.5,14.8-4.5,33-4.5c2.6,0,5.1,0,7.5,0.1l3.6-13.9
		l17.5-18.4c0.4-0.4,1.7-0.1,2.8,1c1.2,1.1,1.9,2.3,1.5,2.7l0,0l-16.3,17.2l-2.9,11.6C120.1,56,127.9,57.5,127.9,59.4z M108.2,60.7
		c0-0.2-0.3-0.4-0.7-0.6l-0.1,0.2c0,0.4-1.4,0.7-3.2,0.7s-3.2-0.3-3.2-0.7c0,0,0-0.1,0-0.1l0.1-0.2c-0.5,0.2-0.9,0.4-0.9,0.7
		c0,0.6,1.8,1.1,3.9,1.1C106.4,61.8,108.2,61.3,108.2,60.7L108.2,60.7z"/>
</g>
</svg>
