<?xml version="1.0" encoding="utf-8"?>
<!-- Generator: Adobe Illustrator 22.0.1, SVG Export Plug-In . SVG Version: 6.00 Build 0)  -->
<svg version="1.1" id="Layer_1" xmlns="http://www.w3.org/2000/svg" xmlns:xlink="http://www.w3.org/1999/xlink" x="0px" y="0px"
	 viewBox="0 0 190 190" style="enable-background:new 0 0 190 190;" xml:space="preserve">
<g>
	<path style="fill:#F6DE38;" d="M40.8,38v117h117V38H40.8z M104.4,129.2c0,11.4-6.7,16.6-16.4,16.6c-8.8,0-13.9-4.5-16.5-10.1l9-5.4
		c1.7,3.1,3.3,5.6,7.1,5.6c3.6,0,5.9-1.4,5.9-6.9V91.7h11L104.4,129.2L104.4,129.2z M130.4,145.8c-10.2,0-16.8-4.9-20-11.2l9-5.2
		c2.4,3.8,5.4,6.7,10.8,6.7c4.5,0,7.5-2.3,7.5-5.4c0-3.8-3-5.1-8-7.3l-2.7-1.2c-7.9-3.4-13.2-7.6-13.2-16.6
		c0-8.3,6.3-14.5,16.1-14.5c7,0,12,2.4,15.6,8.8l-8.6,5.5c-1.9-3.4-3.9-4.7-7.1-4.7c-3.2,0-5.2,2-5.2,4.7c0,3.3,2,4.6,6.8,6.7
		l2.7,1.2c9.3,4,14.6,8.1,14.6,17.3C148.6,140.4,140.9,145.8,130.4,145.8L130.4,145.8z"/>
</g>
</svg>
