<?xml version="1.0" encoding="utf-8"?>
<!-- Generator: Adobe Illustrator 22.0.1, SVG Export Plug-In . SVG Version: 6.00 Build 0)  -->
<svg version="1.1" id="Layer_1" xmlns="http://www.w3.org/2000/svg" xmlns:xlink="http://www.w3.org/1999/xlink" x="0px" y="0px"
	 viewBox="0 0 190 190" style="enable-background:new 0 0 190 190;" xml:space="preserve">
<g>
	<path style="fill:#333333;" d="M94.2,140.3c-0.5,0-1-0.1-1.4-0.4l-4.5-2.7c-0.7-0.4-0.4-0.5-0.1-0.6c0.9-0.3,1.1-0.4,2-0.9
		c0.1,0,0.2,0,0.3,0l3.5,2.1c0.1,0.1,0.3,0.1,0.4,0l13.6-7.8c0.1-0.1,0.2-0.2,0.2-0.4v-15.7c0-0.2-0.1-0.3-0.2-0.4l-13.6-7.8
		c-0.1-0.1-0.3-0.1-0.4,0l-13.6,7.8c-0.1,0.1-0.2,0.2-0.2,0.4v15.7c0,0.1,0.1,0.3,0.2,0.4l3.7,2.1c2,1,3.3-0.2,3.3-1.4v-15.5
		c0-0.2,0.2-0.4,0.4-0.4h1.7c0.2,0,0.4,0.2,0.4,0.4v15.5c0,2.7-1.5,4.2-4,4.2c-0.8,0-1.4,0-3.1-0.8l-3.6-2c-0.9-0.5-1.4-1.5-1.4-2.5
		v-15.7c0-1,0.5-2,1.4-2.5l13.6-7.8c0.9-0.5,2-0.5,2.8,0l13.6,7.8c0.9,0.5,1.4,1.5,1.4,2.5v15.7c0,1-0.5,2-1.4,2.5l-13.6,7.8
		C95.2,140.1,94.7,140.3,94.2,140.3L94.2,140.3z M105.1,124.8c0-2.9-2-3.7-6.1-4.3c-4.2-0.6-4.6-0.8-4.6-1.8c0-0.8,0.4-1.9,3.5-1.9
		c2.8,0,3.8,0.6,4.2,2.5c0,0.2,0.2,0.3,0.4,0.3h1.8c0.1,0,0.2,0,0.3-0.1c0.1-0.1,0.1-0.2,0.1-0.3c-0.3-3.2-2.4-4.7-6.8-4.7
		c-3.9,0-6.2,1.6-6.2,4.4c0,3,2.3,3.8,6,4.2c4.4,0.4,4.8,1.1,4.8,1.9c0,1.5-1.2,2.2-4.1,2.2c-3.6,0-4.4-0.9-4.6-2.7
		c0-0.2-0.2-0.3-0.4-0.3h-1.8c-0.2,0-0.4,0.2-0.4,0.4c0,2.3,1.2,5,7.2,5C102.7,129.5,105.1,127.8,105.1,124.8L105.1,124.8z
		 M117.9,113.1c0,1.4-1.2,2.6-2.6,2.6c-1.4,0-2.6-1.2-2.6-2.6c0-1.5,1.2-2.6,2.6-2.6C116.7,110.4,117.9,111.6,117.9,113.1z
		 M117.5,113.1c0-1.2-1-2.2-2.2-2.2c-1.2,0-2.2,1-2.2,2.2c0,1.2,1,2.2,2.2,2.2C116.5,115.2,117.5,114.3,117.5,113.1z M116.4,114.5
		h-0.6c0-0.1-0.1-0.9-0.1-0.9c0-0.2-0.1-0.3-0.3-0.3h-0.5v1.2h-0.6v-2.9h1c0.4,0,1,0,1,0.8c0,0.5-0.4,0.7-0.6,0.7
		c0.4,0,0.4,0.3,0.5,0.7C116.3,114,116.4,114.4,116.4,114.5L116.4,114.5z M115.8,112.4c0-0.4-0.3-0.4-0.4-0.4h-0.5v0.8h0.4
		C115.7,112.9,115.8,112.6,115.8,112.4z M52.2,79c0-0.6-0.3-1.2-0.9-1.5l-14.4-8.3c-0.2-0.1-0.5-0.2-0.8-0.2H36
		c-0.3,0-0.5,0.1-0.8,0.2l-14.4,8.3C20.3,77.8,20,78.4,20,79l0,22.3c0,0.3,0.2,0.6,0.4,0.8c0.3,0.2,0.6,0.2,0.9,0l8.5-4.9
		c0.5-0.3,0.9-0.9,0.9-1.5V85.2c0-0.6,0.3-1.2,0.9-1.5l3.6-2.1c0.3-0.2,0.6-0.2,0.9-0.2s0.6,0.1,0.9,0.2l3.6,2.1
		c0.5,0.3,0.9,0.9,0.9,1.5v10.4c0,0.6,0.3,1.2,0.9,1.5l8.5,4.9c0.3,0.2,0.6,0.2,0.9,0c0.3-0.1,0.4-0.4,0.4-0.8L52.2,79L52.2,79z
		 M130.8,54.7v41.4c0,0.6-0.3,1.2-0.9,1.5l-14.4,8.3c-0.5,0.3-1.2,0.3-1.7,0l-14.4-8.3c-0.5-0.3-0.9-0.9-0.9-1.5V79.5
		c0-0.6,0.3-1.2,0.9-1.5l14.4-8.3c0.5-0.3,1.2-0.3,1.7,0l3.6,2.1c0.4,0.2,0.9-0.1,0.9-0.5V49.1c0-0.7,0.7-1.1,1.3-0.8l8.6,4.8
		C130.5,53.5,130.8,54,130.8,54.7L130.8,54.7z M120,84.9c0-0.2-0.1-0.3-0.2-0.4l-4.9-2.9c-0.1-0.1-0.3-0.1-0.4,0l-4.9,2.9
		c-0.1,0.1-0.2,0.2-0.2,0.4v5.7c0,0.2,0.1,0.3,0.2,0.4l4.9,2.8c0.1,0.1,0.3,0.1,0.4,0l4.9-2.8c0.1-0.1,0.2-0.2,0.2-0.4L120,84.9
		L120,84.9z M169.3,84.8c0.5-0.3,0.9-0.9,0.9-1.5v-4c0-0.6-0.3-1.2-0.9-1.5L155,69.4c-0.5-0.3-1.2-0.3-1.7,0l-14.4,8.3
		c-0.5,0.3-0.9,0.9-0.9,1.5v16.6c0,0.6,0.3,1.2,0.9,1.5l14.3,8.1c0.5,0.3,1.2,0.3,1.7,0l8.6-4.8c0.6-0.3,0.6-1.2,0-1.5L149,90.9
		c-0.3-0.2-0.4-0.4-0.4-0.8v-5.2c0-0.3,0.2-0.6,0.4-0.8l4.5-2.6c0.3-0.2,0.6-0.2,0.9,0l4.5,2.6c0.3,0.2,0.4,0.4,0.4,0.8V89
		c0,0.7,0.7,1.1,1.3,0.8L169.3,84.8L169.3,84.8z M151.1,85.6c-0.1,0.1-0.2,0.2-0.2,0.3v3.2c0,0.1,0.1,0.2,0.2,0.3l2.8,1.6
		c0.1,0.1,0.2,0.1,0.3,0l2.8-1.6c0.1-0.1,0.2-0.2,0.2-0.3v-3.2c0-0.1-0.1-0.2-0.2-0.3l-2.8-1.6c-0.1-0.1-0.2-0.1-0.3,0L151.1,85.6z
		 M91.5,95.8V79.3c0-0.6-0.4-1.2-0.9-1.5l-14.3-8.3c-0.5-0.3-1.2-0.3-1.7,0l-14.3,8.3c-0.5,0.3-0.9,0.9-0.9,1.5v16.5
		c0,0.7,0.4,1.2,0.9,1.5l14.4,8.3c0.6,0.3,1.2,0.3,1.7,0l14.3-8.3c0.4-0.2,0.7-0.6,0.8-1.1C91.5,96.1,91.5,95.9,91.5,95.8L91.5,95.8
		z M74,66.5l-0.2,0.1h0.3L74,66.5z M91.9,97l-0.1-0.2L91.9,97L91.9,97L91.9,97z"/>
</g>
</svg>
