<?xml version="1.0" encoding="utf-8"?>
<!-- Generator: Adobe Illustrator 22.0.1, SVG Export Plug-In . SVG Version: 6.00 Build 0)  -->
<svg version="1.1" id="Layer_1" xmlns="http://www.w3.org/2000/svg" xmlns:xlink="http://www.w3.org/1999/xlink" x="0px" y="0px"
	 viewBox="0 0 190 190" style="enable-background:new 0 0 190 190;" xml:space="preserve">
<g>
	<g id="g3438" transform="matrix(1.25 0 0 -1.25 -4.4 394.3)">
		<g id="g3440">
			<g>
				<defs>
					<path id="SVGID_1_" d="M19.2,239.2c0-17.6,27.1-31.8,60.4-31.8s60.4,14.2,60.4,31.8s-27.1,31.8-60.4,31.8
						S19.2,256.7,19.2,239.2"/>
				</defs>
				<clipPath id="SVGID_2_">
					<use xlink:href="#SVGID_1_"  style="overflow:visible;"/>
				</clipPath>
				<g id="g3442" style="clip-path:url(#SVGID_2_);">
					<g id="g3448">
						<g id="g3450">
							
								<radialGradient id="path3462_1_" cx="55.1365" cy="124.4054" r="0.2186" gradientTransform="matrix(453.825 0 0 -453.825 -24966.8438 56718.0625)" gradientUnits="userSpaceOnUse">
								<stop  offset="0" style="stop-color:#AEB2D5"/>
								<stop  offset="0.3" style="stop-color:#AEB2D5"/>
								<stop  offset="0.75" style="stop-color:#484C89"/>
								<stop  offset="1" style="stop-color:#484C89"/>
							</radialGradient>
							<path id="path3462" style="fill:url(#path3462_1_);" d="M19.2,239.2c0-17.6,27.1-31.8,60.4-31.8s60.4,14.2,60.4,31.8
								s-27.1,31.8-60.4,31.8S19.2,256.7,19.2,239.2"/>
						</g>
					</g>
				</g>
			</g>
		</g>
		<g id="g3464">
			<g>
				<defs>
					<rect id="SVGID_3_" x="0.9" y="194.9" width="157.4" height="88.5"/>
				</defs>
				<clipPath id="SVGID_4_">
					<use xlink:href="#SVGID_3_"  style="overflow:visible;"/>
				</clipPath>
				<g id="g3466" style="clip-path:url(#SVGID_4_);">
					<g id="g3472" transform="translate(288 27.36)">
						<path id="path3474" style="fill:#777BB3;" d="M-208.4,182.4c32.1,0,58.1,13.2,58.1,29.4s-26,29.4-58.1,29.4
							s-58.1-13.2-58.1-29.4C-266.4,195.5-240.4,182.4-208.4,182.4"/>
					</g>
				</g>
			</g>
		</g>
		<g id="g3476">
			<g>
				<defs>
					<rect id="SVGID_5_" x="0.9" y="194.9" width="157.4" height="88.5"/>
				</defs>
				<clipPath id="SVGID_6_">
					<use xlink:href="#SVGID_5_"  style="overflow:visible;"/>
				</clipPath>
				<g id="g3478" style="clip-path:url(#SVGID_6_);">
					<g id="g3484" transform="translate(161.73 145.31)">
						<path id="path3486" d="M-109.7,90.2c2.6,0,4.6,0.5,5.9,1.4c1.2,0.9,2.1,2.6,2.5,4.9c0.4,2.1,0.3,3.6-0.5,4.4
							c-0.7,0.8-2.4,1.2-4.8,1.2h-4.2l-2.3-12H-109.7z M-123.5,75.4c-0.2,0-0.4,0.1-0.5,0.2c-0.1,0.2-0.2,0.3-0.1,0.5l6.2,31.9
							c0.1,0.3,0.3,0.5,0.6,0.5h13.3c4.2,0,7.3-1.1,9.3-3.4c2-2.3,2.6-5.4,1.8-9.4c-0.3-1.6-0.9-3.1-1.6-4.5c-0.8-1.3-1.7-2.6-3-3.7
							c-1.4-1.4-3.1-2.3-4.9-2.9c-1.7-0.6-4-0.9-6.7-0.9h-5.4l-1.5-7.9c-0.1-0.3-0.3-0.5-0.6-0.5H-123.5L-123.5,75.4z"/>
					</g>
					<g id="g3488" transform="translate(159.22 197.31)">
						<path id="path3490" style="fill:#FFFFFF;" d="M-107.7,49.6h3.7c2.9,0,4-0.6,4.3-1c0.6-0.6,0.7-2,0.3-3.9
							c-0.4-2.1-1.2-3.6-2.3-4.5c-1.1-0.9-3-1.3-5.5-1.3h-2.6L-107.7,49.6z M-101.4,57.2h-13.3c-0.6,0-1.2-0.4-1.3-1.1l-6.2-31.9
							c-0.1-0.4,0-0.8,0.3-1.1c0.2-0.3,0.6-0.5,1-0.5h6.9c0.6,0,1.2,0.4,1.3,1.1l1.4,7.4h4.9c2.8,0,5.1,0.3,6.9,0.9
							c1.9,0.6,3.6,1.6,5.1,3.1c1.3,1.2,2.3,2.5,3.1,3.9c0.8,1.4,1.3,3,1.7,4.7c0.8,4.2,0.2,7.5-2,9.9C-93.7,56-97,57.2-101.4,57.2
							 M-111.4,37.5h4.2c2.8,0,4.9,0.5,6.3,1.6c1.4,1.1,2.3,2.8,2.8,5.3c0.5,2.4,0.3,4-0.6,5c-0.9,1-2.6,1.5-5.3,1.5h-4.8
							L-111.4,37.5 M-101.4,55.9c4,0,6.9-1.1,8.8-3.2c1.8-2.1,2.4-5,1.7-8.8c-0.3-1.6-0.8-3-1.5-4.3c-0.7-1.3-1.7-2.5-2.8-3.5
							c-1.4-1.3-2.9-2.2-4.6-2.8c-1.7-0.6-3.9-0.8-6.5-0.8h-5.9L-114,24h-6.9l6.2,31.9H-101.4"/>
					</g>
					<g id="g3492" transform="translate(311.58 116.31)">
						<path id="path3494" d="M-226.8,112.9c-0.2,0-0.4,0.1-0.5,0.2c-0.1,0.2-0.2,0.3-0.1,0.5l2.7,14.1c0.3,1.3,0.2,2.3-0.2,2.7
							c-0.2,0.2-0.9,0.7-3,0.7h-5l-3.4-17.7c-0.1-0.3-0.3-0.5-0.6-0.5h-6.9c-0.2,0-0.4,0.1-0.5,0.2c-0.1,0.2-0.2,0.3-0.1,0.5
							l6.2,31.9c0.1,0.3,0.3,0.5,0.6,0.5h6.9c0.2,0,0.4-0.1,0.5-0.2c0.1-0.2,0.2-0.4,0.1-0.5l-1.5-7.7h5.3c4.1,0,6.8-0.7,8.4-2.2
							c1.6-1.5,2.1-3.9,1.5-7.2l-2.9-14.8c-0.1-0.3-0.3-0.5-0.6-0.5H-226.8z"/>
					</g>
					<g id="g3496" transform="translate(293.66 271.06)">
						<path id="path3498" style="fill:#FFFFFF;" d="M-212.8-8.1h-6.9c-0.6,0-1.2-0.4-1.3-1.1l-6.2-31.9c-0.1-0.4,0-0.8,0.3-1.1
							c0.2-0.3,0.6-0.5,1-0.5h6.9c0.6,0,1.2,0.4,1.3,1.1l3.3,17.2h4.4c2,0,2.5-0.4,2.5-0.5c0.1-0.1,0.3-0.8,0-2.1l-2.7-14.1
							c-0.1-0.4,0-0.8,0.3-1.1c0.2-0.3,0.6-0.5,1-0.5h7c0.6,0,1.2,0.4,1.3,1.1l2.9,14.8c0.7,3.5,0.1,6.1-1.7,7.8
							c-1.7,1.6-4.6,2.4-8.9,2.4h-4.5l1.3,6.9c0.1,0.4,0,0.8-0.3,1.1C-212-8.2-212.4-8.1-212.8-8.1 M-212.8-9.4l-1.6-8.5h6.1
							c3.9,0,6.5-0.7,8-2c1.5-1.3,1.9-3.5,1.3-6.5l-2.9-14.8h-7l2.7,14.1c0.3,1.6,0.2,2.7-0.3,3.3c-0.5,0.6-1.7,0.9-3.5,0.9h-5.5
							l-3.5-18.3h-6.9l6.2,31.9H-212.8"/>
					</g>
					<g id="g3500" transform="translate(409.55 145.31)">
						<path id="path3502" d="M-303.3,90.2c2.6,0,4.6,0.5,5.9,1.4c1.2,0.9,2.1,2.6,2.5,4.9c0.4,2.1,0.3,3.6-0.5,4.4
							c-0.7,0.8-2.4,1.2-4.8,1.2h-4.2l-2.3-12H-303.3z M-317.1,75.4c-0.2,0-0.4,0.1-0.5,0.2c-0.1,0.2-0.2,0.3-0.1,0.5l6.2,31.9
							c0.1,0.3,0.3,0.5,0.6,0.5h13.3c4.2,0,7.3-1.1,9.3-3.4c2-2.3,2.6-5.4,1.8-9.4c-0.3-1.6-0.9-3.1-1.6-4.5c-0.8-1.3-1.7-2.6-3-3.7
							c-1.4-1.4-3.1-2.3-4.9-2.9c-1.7-0.6-4-0.9-6.7-0.9h-5.4l-1.5-7.9c-0.1-0.3-0.3-0.5-0.6-0.5H-317.1z"/>
					</g>
					<g id="g3504" transform="translate(407.04 197.31)">
						<path id="path3506" style="fill:#FFFFFF;" d="M-301.4,49.6h3.7c2.9,0,4-0.6,4.3-1c0.6-0.6,0.7-2,0.3-3.9
							c-0.4-2.1-1.2-3.6-2.3-4.5c-1.1-0.9-3-1.3-5.5-1.3h-2.6L-301.4,49.6z M-295.1,57.2h-13.3c-0.6,0-1.2-0.4-1.3-1.1l-6.2-31.9
							c-0.1-0.4,0-0.8,0.3-1.1c0.2-0.3,0.6-0.5,1-0.5h6.9c0.6,0,1.2,0.4,1.3,1.1l1.4,7.4h4.9c2.8,0,5.1,0.3,6.9,0.9
							c1.9,0.6,3.6,1.6,5.1,3.1c1.3,1.2,2.3,2.5,3.1,3.9c0.8,1.4,1.3,3,1.7,4.7c0.8,4.2,0.2,7.5-2,9.9
							C-287.4,56-290.7,57.2-295.1,57.2 M-305,37.5h4.2c2.8,0,4.9,0.5,6.3,1.6c1.4,1.1,2.3,2.8,2.8,5.3c0.5,2.4,0.3,4-0.6,5
							c-0.9,1-2.6,1.5-5.3,1.5h-4.8L-305,37.5 M-295.1,55.9c4,0,6.9-1.1,8.8-3.2c1.8-2.1,2.4-5,1.7-8.8c-0.3-1.6-0.8-3-1.5-4.3
							c-0.7-1.3-1.7-2.5-2.8-3.5c-1.4-1.3-2.9-2.2-4.6-2.8c-1.7-0.6-3.9-0.8-6.5-0.8h-5.9l-1.6-8.5h-6.9l6.2,31.9H-295.1"/>
					</g>
				</g>
			</g>
		</g>
	</g>
</g>
</svg>
