<?xml version="1.0" encoding="utf-8"?>
<!-- Generator: Adobe Illustrator 22.0.1, SVG Export Plug-In . SVG Version: 6.00 Build 0)  -->
<svg version="1.1" id="Layer_1" xmlns="http://www.w3.org/2000/svg" xmlns:xlink="http://www.w3.org/1999/xlink" x="0px" y="0px"
	 viewBox="0 0 190 190" style="enable-background:new 0 0 190 190;" xml:space="preserve">
<g>
	<path style="fill:#61DAFB;" d="M137.1,76c-1.4-0.5-2.8-0.9-4.2-1.3c0.2-1,0.4-1.9,0.6-2.9c3.2-15.5,1.1-27.9-6-32
		c-6.8-3.9-18,0.2-29.2,10c-1.1,1-2.2,2-3.2,3c-0.7-0.7-1.4-1.4-2.2-2C81.1,40.3,69.3,35.8,62.2,40c-6.8,3.9-8.8,15.7-6,30.3
		c0.3,1.5,0.6,2.9,1,4.3c-1.7,0.5-3.3,1-4.8,1.5C38.5,81,28.5,88.5,28.5,96.4c0,8.1,10.6,16.2,25,21.2c1.2,0.4,2.3,0.8,3.5,1.1
		c-0.4,1.6-0.7,3.1-1,4.7c-2.7,14.4-0.6,25.8,6.2,29.8c7,4.1,18.8-0.1,30.3-10.2c0.9-0.8,1.8-1.6,2.7-2.5c1.1,1.1,2.3,2.2,3.5,3.2
		c11.1,9.6,22.1,13.4,28.9,9.5c7-4.1,9.3-16.3,6.3-31.3c-0.2-1.1-0.5-2.3-0.8-3.5c0.8-0.2,1.6-0.5,2.4-0.8c15-5,25.8-13,25.8-21.2
		C161.5,88.5,151.3,80.9,137.1,76L137.1,76z M102,54c9.7-8.4,18.7-11.7,22.8-9.4c4.4,2.5,6.1,12.7,3.3,26.1
		c-0.2,0.9-0.4,1.7-0.6,2.6c-5.8-1.3-11.6-2.2-17.5-2.8c-3.4-4.8-7.1-9.5-11.1-13.8C100,55.8,101,54.9,102,54z M68.2,103.1
		c1.2,2.3,2.4,4.5,3.7,6.8c1.3,2.3,2.7,4.5,4.1,6.7c-4.1-0.4-8.1-1.1-12.1-1.9C65.1,110.9,66.6,107,68.2,103.1L68.2,103.1z
		 M68.2,89.9c-1.6-3.9-3-7.7-4.2-11.3c3.7-0.8,7.7-1.5,11.8-2c-1.4,2.2-2.7,4.4-4,6.6C70.6,85.4,69.4,87.7,68.2,89.9L68.2,89.9z
		 M71.2,96.5c1.7-3.6,3.6-7.1,5.6-10.5c2-3.5,4.1-6.8,6.3-10.1C87,75.6,91,75.4,95,75.4c4.1,0,8.1,0.2,11.9,0.4
		c2.2,3.3,4.3,6.6,6.3,10.1c2,3.4,3.9,6.9,5.6,10.5c-1.7,3.6-3.6,7.1-5.6,10.6c-2,3.5-4.1,6.8-6.3,10.1c-3.9,0.3-7.9,0.4-12,0.4
		c-4.1,0-8-0.1-11.8-0.4c-2.3-3.3-4.4-6.7-6.4-10.1C74.8,103.6,72.9,100.1,71.2,96.5L71.2,96.5z M118.1,109.8
		c1.3-2.3,2.6-4.6,3.8-6.9c1.7,3.8,3.1,7.6,4.4,11.5c-4,0.9-8.1,1.6-12.2,2.1C115.5,114.3,116.8,112.1,118.1,109.8L118.1,109.8z
		 M121.8,89.9c-1.2-2.3-2.5-4.6-3.8-6.8c-1.3-2.2-2.6-4.4-4-6.5c4.2,0.5,8.2,1.2,11.9,2.1C124.8,82.5,123.4,86.3,121.8,89.9z
		 M95.1,60.7c2.7,3,5.3,6.1,7.7,9.3c-5.1-0.2-10.3-0.2-15.5,0C89.8,66.7,92.5,63.6,95.1,60.7z M64.9,44.8
		c4.4-2.5,14.1,1.1,24.3,10.1c0.6,0.6,1.3,1.2,2,1.8c-4,4.3-7.7,9-11.1,13.8c-5.9,0.5-11.7,1.4-17.5,2.7c-0.3-1.3-0.6-2.7-0.9-4
		C59.2,56.6,60.8,47.2,64.9,44.8L64.9,44.8z M58.6,113.3c-1.1-0.3-2.2-0.6-3.2-1c-5.5-1.7-11.8-4.5-16.4-8.1
		c-2.6-1.8-4.4-4.6-4.9-7.8c0-4.8,8.2-10.8,20.1-15c1.5-0.5,3-1,4.5-1.4c1.8,5.6,3.9,11.2,6.4,16.5
		C62.5,101.9,60.4,107.6,58.6,113.3z M88.9,138.7c-4.3,3.9-9.2,7-14.7,9.2c-2.9,1.4-6.2,1.5-9.2,0.3c-4.1-2.4-5.8-11.6-3.5-23.9
		c0.3-1.5,0.6-2.9,1-4.3c5.8,1.2,11.7,2.1,17.6,2.5c3.4,4.9,7.2,9.5,11.2,13.9C90.5,137.2,89.7,138,88.9,138.7L88.9,138.7z
		 M95.2,132.4c-2.6-2.9-5.3-6-7.9-9.4c2.5,0.1,5.1,0.2,7.7,0.2c2.7,0,5.3-0.1,7.9-0.2C100.5,126.3,97.9,129.4,95.2,132.4z
		 M129.2,140.2c-0.2,3.2-1.8,6.1-4.3,8.1c-4.1,2.4-12.9-0.7-22.4-8.9c-1.1-0.9-2.2-1.9-3.3-3c4-4.4,7.6-9,11-13.9
		c5.9-0.5,11.9-1.4,17.7-2.7c0.3,1.1,0.5,2.1,0.7,3.2C129.8,128.6,130,134.4,129.2,140.2L129.2,140.2z M133.9,112.3
		c-0.7,0.2-1.5,0.5-2.2,0.7c-1.8-5.7-4.1-11.2-6.6-16.6c2.5-5.3,4.6-10.8,6.4-16.3c1.4,0.4,2.6,0.8,3.9,1.2
		c12.1,4.2,20.6,10.3,20.6,15.1C155.9,101.4,146.9,108,133.9,112.3z M95,84.6c6.6,0,11.9,5.3,11.9,11.9c0,6.6-5.3,11.9-11.9,11.9
		c-6.6,0-11.9-5.3-11.9-11.9C83.1,89.9,88.4,84.6,95,84.6"/>
</g>
</svg>
