<?xml version="1.0" encoding="utf-8"?>
<!-- Generator: Adobe Illustrator 22.0.1, SVG Export Plug-In . SVG Version: 6.00 Build 0)  -->
<svg version="1.1" id="Layer_1" xmlns="http://www.w3.org/2000/svg" xmlns:xlink="http://www.w3.org/1999/xlink" x="0px" y="0px"
	 viewBox="0 0 190 190" style="enable-background:new 0 0 190 190;" xml:space="preserve">
<g>
	<path style="fill:#21759A;" d="M40.9,72.9l28.2,77.3c-19.8-9.6-33.4-29.8-33.4-53.3C35.8,88.4,37.7,80.3,40.9,72.9z M135,94
		c0-7.3-2.6-12.4-4.9-16.3c-3-4.9-5.8-9-5.8-13.9c0-5.5,4.1-10.5,9.9-10.5c0.3,0,0.5,0,0.8,0.1c-10.5-9.7-24.6-15.6-40-15.6
		c-20.7,0-38.9,10.6-49.5,26.7c1.4,0.1,2.7,0.1,3.8,0.1c6.2,0,15.8-0.8,15.8-0.8c3.2-0.2,3.6,4.5,0.4,4.9c0,0-3.2,0.4-6.8,0.6
		l21.6,64.1l13-38.8l-9.2-25.3c-3.2-0.2-6.2-0.6-6.2-0.6c-3.2-0.2-2.8-5.1,0.4-4.9c0,0,9.8,0.8,15.6,0.8c6.2,0,15.8-0.8,15.8-0.8
		c3.2-0.2,3.6,4.5,0.4,4.9c0,0-3.2,0.4-6.8,0.6l21.4,63.6l5.9-19.7C133,105,135,99.1,135,94L135,94z M96,102.2l-17.8,51.6
		c5.3,1.6,10.9,2.4,16.7,2.4c6.9,0,13.5-1.2,19.6-3.4c-0.2-0.3-0.3-0.5-0.4-0.8L96,102.2z M146.9,68.6c0.3,1.9,0.4,3.9,0.4,6.1
		c0,6-1.1,12.7-4.5,21.2l-18.1,52.3c17.6-10.3,29.4-29.3,29.4-51.2C154.2,86.7,151.6,77,146.9,68.6L146.9,68.6z M164,97
		c0,38.1-31,69-69,69c-38.1,0-69-31-69-69c0-38.1,30.9-69,69-69C133,28,164,58.9,164,97z M160.8,97c0-36.3-29.5-65.8-65.8-65.8
		c-36.3,0-65.8,29.5-65.8,65.8s29.5,65.8,65.8,65.8C131.3,162.8,160.8,133.3,160.8,97z"/>
</g>
</svg>
