<?xml version="1.0" standalone="no"?>
<!DOCTYPE svg PUBLIC "-//W3C//DTD SVG 20010904//EN"
 "http://www.w3.org/TR/2001/REC-SVG-20010904/DTD/svg10.dtd">
<svg version="1.0" xmlns="http://www.w3.org/2000/svg"
 width="260.000000pt" height="260.000000pt" viewBox="0 0 260.000000 260.000000"
 preserveAspectRatio="xMidYMid meet">
<metadata>
Created by potrace 1.11, written by Peter Selinger 2001-2013
</metadata>
<g transform="translate(0.000000,260.000000) scale(0.100000,-0.100000)"
fill="#000000" stroke="none">
<path d="M271 2298 c-52 -19 -50 -3 -51 -615 l0 -573 -72 0 c-117 -1 -108 33
-108 -406 0 -221 4 -385 10 -394 14 -23 383 -27 417 -5 23 15 23 18 23 195 0
164 2 180 18 181 21 1 532 1 550 0 8 -1 11 -11 8 -28 -4 -29 -10 -70 -22 -158
-4 -27 -6 -58 -6 -69 1 -10 -8 -20 -19 -23 -24 -7 -36 -48 -19 -68 11 -13 69
-15 394 -15 284 0 385 3 394 12 21 21 14 57 -11 63 -17 5 -24 14 -25 38 -1 18
-9 79 -16 137 -8 58 -12 107 -10 109 2 3 178 4 392 4 248 0 394 3 407 10 45
23 44 3 45 800 l0 759 -28 27 -28 28 -1109 0 c-631 0 -1120 -3 -1134 -9z"/>
</g>
</svg>
